<svg xmlns="http://www.w3.org/2000/svg" viewBox="0 0 21.6 17.8"><defs><style>.cls-1{fill:#777;}</style></defs><title>wechat</title><g id="图层_2" data-name="图层 2"><g id="design"><g id="WeChat"><path class="cls-1" d="M21.6,11.4c0-3-2.9-5.5-6.5-5.5S8.6,8.3,8.6,11.4s2.9,5.5,6.5,5.5a7.61,7.61,0,0,0,2.1-.3h.1l2.4,1.2-.6-2h.1A5.5,5.5,0,0,0,21.6,11.4Zm-8.8-1a.9.9,0,1,1,.9-.9A.9.9,0,0,1,12.8,10.4Zm4.5,0a.9.9,0,1,1,.9-.9C18.3,10,17.9,10.4,17.3,10.4Z"/><path class="cls-1" d="M7.7,0C3.4,0,0,2.9,0,6.5a6.05,6.05,0,0,0,3,5.1h.1l-.7,2.3,2.8-1.4h.1a9.86,9.86,0,0,0,2.4.3h.5A3.89,3.89,0,0,1,8,11.3C8,8,11.1,5.4,15,5.4h.3C14.8,2.4,11.6,0,7.7,0ZM5,5.3A1.1,1.1,0,1,1,6.1,4.2,1.11,1.11,0,0,1,5,5.3Zm5.4,0a1.1,1.1,0,1,1,1.1-1.1A1.11,1.11,0,0,1,10.4,5.3Z"/></g></g></g></svg>