<?xml version="1.0" encoding="utf-8"?>
<!-- Generator: Adobe Illustrator 21.0.2, SVG Export Plug-In . SVG Version: 6.00 Build 0)  -->
<svg version="1.1" id="图层_1" xmlns="http://www.w3.org/2000/svg" xmlns:xlink="http://www.w3.org/1999/xlink" x="0px" y="0px"
	 width="800px" height="800px" viewBox="0 0 800 800" style="enable-background:new 0 0 800 800;" xml:space="preserve">
<style type="text/css">
	.st0{fill:#040000;}
	.st1{fill:none;stroke:#040000;stroke-width:2;stroke-miterlimit:10;}
	.st2{fill:none;stroke:#040000;stroke-width:2;stroke-linecap:round;stroke-miterlimit:10;}
	.st3{fill:none;}
	.st4{opacity:0;}
	.st5{fill:#202121;}
	.st6{fill:none;stroke:#040000;stroke-linecap:square;}
	.st7{fill:none;stroke:#777777;stroke-width:2;stroke-miterlimit:10;}
	.st8{opacity:0.5;}
	.st9{fill:#222222;}
	.st10{clip-path:url(#SVGID_2_);}
	.st11{opacity:0.5;clip-path:url(#SVGID_4_);}
	.st12{clip-path:url(#SVGID_6_);}
	.st13{clip-path:url(#SVGID_8_);}
	.st14{fill:#FFFFFF;}
</style>
<g id="logo_1_">
	<g>
		<path class="st0" d="M1.8,1.8c-2.4,2.4-2.4,6.3,0,8.7l2.4,2.4h5L8,11.7l0,0L4.3,8c-1-1-1-2.7,0-3.7s2.7-1,3.7,0l4.9,4.9v-5
			l-2.4-2.4C8.1-0.6,4.2-0.6,1.8,1.8"/>
		<path class="st0" d="M23.5,4.3c1,1,1,2.7,0,3.7l-3.7,3.7l0,0l-1.2,1.2h5l2.4-2.4c2.4-2.4,2.4-6.3,0-8.7s-6.3-2.4-8.7,0l-2.4,2.4v5
			l4.9-4.9C20.8,3.3,22.5,3.3,23.5,4.3"/>
		<path class="st0" d="M23.6,14.9h-5l1.2,1.2l0,0l3.7,3.7c1,1,1,2.7,0,3.7s-2.7,1-3.7,0l-4.9-4.9v5l2.4,2.4c2.4,2.4,6.3,2.4,8.7,0
			s2.4-6.3,0-8.7L23.6,14.9z"/>
		<path class="st0" d="M4.3,23.5c-1-1-1-2.7,0-3.7L8,16.1l0,0l1.2-1.2h-5l-2.4,2.4c-2.4,2.4-2.4,6.3,0,8.7s6.3,2.4,8.7,0l2.4-2.4v-5
			L8,23.5C7,24.6,5.3,24.6,4.3,23.5"/>
	</g>
	<rect x="36.7" y="6.5" class="st0" width="2.3" height="14.8"/>
	<path class="st0" d="M48.4,20.6l0.8-1.9c0.4,0.3,0.9,0.5,1.6,0.7c0.6,0.2,1.2,0.3,1.7,0.3c0.9,0,1.6-0.2,2.1-0.6s0.8-1,0.8-1.7
		c0-0.5-0.1-1-0.4-1.4c-0.3-0.4-1-0.9-2.2-1.4L51.5,14c-1.1-0.5-1.9-1-2.4-1.7c-0.4-0.6-0.7-1.4-0.7-2.3c0-1.1,0.4-2,1.3-2.8
		c0.9-0.7,2-1.1,3.4-1.1c1.8,0,3.1,0.3,3.8,0.8l-0.7,1.8c-0.3-0.2-0.8-0.4-1.4-0.6C54.2,8,53.6,8,53.1,8c-0.8,0-1.4,0.2-1.8,0.6
		c-0.4,0.4-0.7,0.9-0.7,1.5c0,0.4,0.1,0.7,0.2,1c0.2,0.3,0.4,0.6,0.7,0.8s0.9,0.5,1.7,0.9l1.4,0.6c1.1,0.5,1.9,1.1,2.4,1.7
		c0.5,0.7,0.7,1.5,0.7,2.5c0,1.1-0.5,2.1-1.5,2.8c-1,0.8-2.3,1.2-4,1.2C50.7,21.6,49.5,21.3,48.4,20.6"/>
	<path class="st0" d="M66.3,6.5h2.3v10.2c0,0.9,0.3,1.6,1,2.2c0.6,0.6,1.5,0.9,2.5,0.9c1.1,0,2-0.3,2.6-0.9s1-1.3,1-2.3V6.5H78v10.3
		c0,1.5-0.5,2.7-1.6,3.5c-1,0.8-2.5,1.3-4.2,1.3c-1.8,0-3.3-0.4-4.3-1.2c-1-0.8-1.5-2-1.5-3.5V6.5H66.3z"/>
	<polygon class="st0" points="96.6,21.3 92.5,15.4 88.7,21.3 86.5,21.3 91.3,13.6 86.9,6.5 89.1,6.5 92.6,12.1 96.5,6.5 98.7,6.5 
		93.6,13.7 99,21.3 	"/>
</g>
<g>
	<circle class="st1" cx="131" cy="10" r="9"/>
	<line class="st2" x1="125" y1="17" x2="120" y2="22"/>
</g>
<g>
	<line class="st1" x1="150" y1="0" x2="160.6" y2="10.6"/>
	<line class="st1" x1="170" y1="0" x2="159.4" y2="10.6"/>
</g>
<g>
	<path class="st0" d="M199.7,20.8c0,0,0.3,0.1,1-0.7c0.7-0.8,2-2.8,2-3.7s0-1.4-0.6-1.7s-2,0.2-2,0.2s0.4-1.5,1.1-2.4
		c0.7-0.9,2.3-2.3,4.7-1.8s2,4,1.8,4.6s-1.3,3.6-3.6,6.4c-2.3,2.7-3.6,4.2-5.6,4.8s-3-1.8-3.2-2.3s-1.5-5.4-1.7-6
		c-0.2-0.7-0.6-1.9-1-2.5S192,15,191.8,15s-1.3,0.9-1.3,0.9l-0.8-1.1c0,0,2.6-2.5,3.4-3.1s1.9-1.2,2.7-1c0.8,0.3,1.6,0.8,1.9,2.6
		c0.3,1.8,0.9,5.3,1.2,6.3C199,20,199.4,20.8,199.7,20.8z"/>
	<rect x="180" class="st3" width="38" height="38"/>
</g>
<g>
	<g class="st4">
		<rect x="220" class="st0" width="38" height="38"/>
	</g>
	<path class="st5" d="M241.6,12.7h2.5V9.4l-2.8-0.2c-0.3,0-1.9,0-3.2,1.4c-1.2,1.3-1.1,3.1-1.1,3.6v2.4h-3v3.5h3v9.1h3.7v-9.1h3.1
		l0.4-3.5h-3.5V14c0,0,0-0.6,0.3-0.9C241.2,12.8,241.4,12.7,241.6,12.7z"/>
</g>
<g>
	<g class="st4">
		<rect x="260" class="st0" width="38" height="38"/>
	</g>
	<g id="WeChat_6_">
		<g>
			<g>
				<path class="st5" d="M289.8,21.5c0-3-2.9-5.5-6.5-5.5s-6.5,2.4-6.5,5.5c0,3,2.9,5.5,6.5,5.5c0.7,0,1.4-0.1,2.1-0.3h0.1l2.4,1.2
					l-0.6-2c0,0,0,0,0.1,0C288.8,24.9,289.8,23.3,289.8,21.5z M281,20.5c-0.5,0-0.9-0.4-0.9-0.9s0.4-0.9,0.9-0.9s0.9,0.4,0.9,0.9
					S281.5,20.5,281,20.5z M285.5,20.5c-0.5,0-0.9-0.4-0.9-0.9s0.4-0.9,0.9-0.9s0.9,0.4,0.9,0.9C286.5,20.1,286.1,20.5,285.5,20.5z"
					/>
			</g>
			<g>
				<path class="st5" d="M275.9,10.1c-4.3,0-7.7,2.9-7.7,6.5c0,2.1,1.2,4,3,5.1h0.1l-0.7,2.3l2.8-1.4h0.1c0.8,0.2,1.6,0.3,2.4,0.3
					c0.2,0,0.3,0,0.5,0c-0.2-0.5-0.2-1-0.2-1.5c0-3.3,3.1-5.9,7-5.9c0.1,0,0.2,0,0.3,0C283,12.5,279.8,10.1,275.9,10.1z M273.2,15.4
					c-0.6,0-1.1-0.5-1.1-1.1s0.5-1.1,1.1-1.1s1.1,0.5,1.1,1.1S273.8,15.4,273.2,15.4z M278.6,15.4c-0.6,0-1.1-0.5-1.1-1.1
					s0.5-1.1,1.1-1.1s1.1,0.5,1.1,1.1S279.2,15.4,278.6,15.4z"/>
			</g>
		</g>
	</g>
</g>
<g>
	<line class="st1" x1="330" y1="10.6" x2="319.4" y2="0"/>
	<line class="st1" x1="310" y1="10.6" x2="320.6" y2="0"/>
</g>
<g>
	<path class="st6" d="M344,0v16 M344,16l4-4 M344,16l-4-4"/>
</g>
<path class="st7" d="M16.5,58.5c2-2,2-5.1,0-7.1s-5.1-2-7.1,0C9.3,51.6,9.1,51.8,9,52c-0.1-0.2-0.3-0.4-0.5-0.5c-2-2-5.1-2-7.1,0
	s-2,5.1,0,7.1L9,66.1L16.5,58.5z"/>
<g>
	<path class="st7" d="M58,58c0,2.5-3.5,8-9,8s-9-5.5-9-8s3.5-8,9-8S58,55.5,58,58z"/>
	<circle class="st7" cx="49" cy="58" r="3"/>
</g>
<g class="st8">
	<g class="st4">
		<rect x="80" y="50" width="20" height="20"/>
	</g>
	<g id="Qzone_4_">
		<g>
			<path class="st9" d="M97.8,57.9l-5-0.9c-0.1,0-0.2-0.1-0.2-0.2l-2.4-4.4c-0.1-0.1-0.2-0.2-0.2-0.2c-0.1,0-0.2,0.1-0.2,0.2
				l-2.4,4.4C87.3,57,87.3,57,87.1,57l-5,0.9c-0.2,0-0.3,0.3-0.2,0.5l3.6,3.8c0.1,0.1,0.1,0.2,0.1,0.2l-0.8,5c0,0.2,0.2,0.4,0.4,0.3
				l4.6-2.2c0,0,0.1,0,0.2,0s0.1,0,0.2,0l4.6,2.2c0.2,0.1,0.4-0.1,0.4-0.3l-0.6-3.8c0.8-0.6,1.2-1,1.2-1.1c0.1-0.1,0-0.2,0-0.2l0,0
				c-1.3,0.6-4.3,1.4-8.1,1.3c-0.5,0-0.9-0.1-1.2-0.1c-0.2-0.1-0.3-0.3-0.2-0.5c1-0.9,4.6-3.4,4.6-3.4c0.1-0.1,0.1-0.2,0-0.2
				c-0.1-0.1-2-0.7-5-0.3c-0.2,0-0.3-0.2-0.2-0.3c0.8-0.4,2.7-1,4.6-1c1.4,0,2.5,0.4,2.9,0.6c0.2,0.2,0.2,0.3,0,0.4
				c-0.7,0.6-2.8,2.1-3.5,2.6c-0.1,0.1-0.1,0.2,0,0.2c1.2,0.5,3.1,0.6,4.4,0.6l3.7-3.8C98.2,58.2,98.1,58,97.8,57.9z"/>
		</g>
	</g>
</g>
<g class="st8">
	<g class="st4">
		<rect x="120" y="50" width="20" height="20"/>
	</g>
	<path class="st9" d="M136,61.9c-0.2-0.5-0.3-1-0.5-1.4l-0.7-1.8c0,0,0-0.4,0-0.6c0-3-1.4-5.9-4.8-5.9s-4.8,3-4.8,5.9
		c0,0.2,0,0.5,0,0.6l-0.7,1.8c-0.2,0.5-0.4,1-0.5,1.4c-0.6,2.1-0.5,3-0.3,3c0.3,0.1,1.4-1.6,1.4-1.6c0,1,0.5,2.2,1.5,3
		c-0.4,0.2-0.9,0.3-1.2,0.6c-0.2,0.2-0.2,0.4-0.2,0.5c0.2,0.4,3.8,0.2,4.8,0.2c1,0.1,4.6,0.2,4.8-0.2c0.1-0.1,0.1-0.3-0.2-0.5
		s-0.8-0.4-1.2-0.6c1-0.9,1.5-2.1,1.5-3c0,0,1,1.6,1.4,1.6C136.5,64.9,136.6,64.1,136,61.9z"/>
</g>
<g class="st8">
	<g class="st4">
		<rect x="160" y="50" width="20" height="20"/>
	</g>
	<path class="st9" d="M172.1,55h2v-2.6l-2.2-0.2c-0.2,0-1.5,0-2.6,1.1c-1,1-0.9,2.5-0.9,2.9v1.9H166v2.8h2.4v7.3h3v-7.3h2.5l0.3-2.8
		h-2.8V56c0,0,0-0.5,0.2-0.7C171.8,55,171.9,55,172.1,55z"/>
</g>
<g class="st8">
	<g class="st4">
		<rect x="200" y="50" width="20" height="20"/>
	</g>
	<g>
		<g>
			<path class="st9" d="M207.9,60.4c-1.4,0.2-2.8,1.5-2.6,2.8c0.1,1.3,1.4,2,2.9,1.9s2.6-1.3,2.6-2.6
				C210.6,61.2,209.4,60.3,207.9,60.4z M207.4,63.8c-0.5,0.1-1-0.2-1-0.5c-0.1-0.3,0.2-0.8,0.8-0.9c0.5-0.1,1,0.2,1,0.5
				C208.2,63.4,207.9,63.8,207.4,63.8z M215.4,58.6c0.2,0,0.5-0.2,0.6-0.4l0,0l0,0l0,0c0.1-0.2,0.1-0.4,0.1-0.6c0-1.2-1-2.2-2.2-2.2
				c-0.2,0-0.3,0-0.4,0.1c-0.2,0.1-0.5,0.3-0.5,0.6s0.2,0.6,0.6,0.6h0.1l0,0c0.1,0,0.2,0,0.2,0c0.6,0,1,0.4,1,1c0,0.1,0,0.2-0.1,0.3
				l0,0c0,0.1,0,0.1,0,0.2C214.9,58.4,215.1,58.6,215.4,58.6z M214,53.2c-0.3,0-0.6,0-0.9,0.1c-0.3,0.1-0.6,0.3-0.6,0.6
				c0,0.4,0.3,0.7,0.7,0.7c0.1,0,0.1,0,0.2,0l0,0c0.2-0.1,0.4-0.1,0.6-0.1c1.7,0,3,1.4,3,3c0,0.3-0.1,0.6-0.2,1l0,0
				c0,0.1,0,0.2,0,0.2c0,0.4,0.3,0.7,0.7,0.7c0.3,0,0.6-0.2,0.6-0.6c0.1-0.4,0.2-0.8,0.2-1.3C218.4,55.1,216.4,53.2,214,53.2z
				 M213.9,59.6c0.2-0.8,0.6-1.9-0.2-2.3c-1-0.4-2.2-0.2-3.8,0.3c0.1-0.5,0.1-0.8,0.1-1.3c0-0.6-0.5-1.2-1.1-1.3
				c-3-0.1-7.3,4.5-7.3,7c0,0.8,0.1,1.7,1.1,2.6c1.5,1.4,3.5,2.1,6,2.1c3,0,5.6-1.2,7-3c0.5-0.6,0.7-1.5,0.6-1.9
				C216.2,60.8,215.4,60,213.9,59.6z M208.6,65.8c-2.7,0.2-5.1-1.1-5.2-2.9c-0.1-1.8,2-3.6,5.1-3.7c2.9-0.1,4.7,1.1,4.9,2.9
				C213.4,63.9,211.3,65.6,208.6,65.8z"/>
		</g>
	</g>
</g>
<g>
	<g>
		<defs>
			<rect id="SVGID_1_" x="240" y="50" width="20" height="20"/>
		</defs>
		<clipPath id="SVGID_2_">
			<use xlink:href="#SVGID_1_"  style="overflow:visible;"/>
		</clipPath>
		<g class="st10">
			<g>
				<defs>
					<rect id="SVGID_3_" x="240" y="50" width="20" height="20"/>
				</defs>
				<clipPath id="SVGID_4_">
					<use xlink:href="#SVGID_3_"  style="overflow:visible;"/>
				</clipPath>
				<g class="st11">
					<g>
						<defs>
							<rect id="SVGID_5_" x="240" y="50" width="20" height="20"/>
						</defs>
						<clipPath id="SVGID_6_">
							<use xlink:href="#SVGID_5_"  style="overflow:visible;"/>
						</clipPath>
						<g class="st12">
							<g>
								<g class="st4">
									<defs>
										<rect id="SVGID_7_" x="240" y="50" class="st4" width="20" height="20"/>
									</defs>
									<clipPath id="SVGID_8_">
										<use xlink:href="#SVGID_7_"  style="overflow:visible;"/>
									</clipPath>
									<g class="st13">
										<rect x="240" y="50" class="st14" width="20" height="20"/>
									</g>
								</g>
								<path d="M259,54.4c-0.7,0.3-1.4,0.5-2.1,0.6c0.8-0.5,1.3-1.2,1.6-2c-0.7,0.4-1.5,0.7-2.3,0.9c-1.4-1.5-3.8-1.5-5.2-0.1
									c-0.9,0.9-1.3,2.2-1.1,3.5c-3-0.1-5.7-1.6-7.6-3.9c-1,1.7-0.5,3.8,1.1,4.9c-0.6,0-1.2-0.2-1.7-0.5l0,0c0,1.8,1.3,3.3,3,3.6
									c-0.6,0.2-1.2,0.2-1.7,0.1c0.5,1.5,1.9,2.5,3.4,2.6c-1.3,1-2.9,1.6-4.6,1.6c-0.3,0-0.6,0-0.9,0c1.7,1.1,3.7,1.7,5.7,1.7
									c5.8,0,10.5-4.6,10.5-10.3c0-0.1,0-0.1,0-0.2c0-0.2,0-0.3,0-0.5C257.9,55.8,258.5,55.2,259,54.4"/>
							</g>
						</g>
					</g>
				</g>
			</g>
		</g>
	</g>
</g>
</svg>
